<svg width="3478" height="799" viewBox="0 0 3478 799" fill="none" xmlns="http://www.w3.org/2000/svg">
<path d="M150.076 784.514C132.86 784.514 117.556 780.623 104.131 772.842C90.7411 765.06 80.2028 753.874 72.6207 739.249C65.0039 724.658 61.2129 707.046 61.2129 686.48C61.2129 666.088 65.1082 648.614 72.9337 633.989C80.7245 619.399 91.4367 608.143 105.036 600.258C118.669 592.372 134.147 588.446 151.571 588.446C165.205 588.446 176.648 590.913 185.969 595.811C195.29 600.709 202.733 606.024 208.332 611.791L194.525 627.354C189.516 622.352 183.708 618.114 177.135 614.674C170.561 611.235 162.214 609.498 152.232 609.498C139.016 609.498 127.504 612.625 117.696 618.878C107.888 625.131 100.306 633.92 95.0191 645.28C89.7325 656.639 87.0544 670.153 87.0544 685.924C87.0544 709.755 92.6888 728.619 103.992 742.584C115.296 756.514 131.468 763.497 152.476 763.497C159.501 763.497 166.214 762.489 172.613 760.475C179.013 758.46 184.125 755.715 187.916 752.241V702.947H146.18V683.076H210.732V762.663C204.541 769.02 196.194 774.231 185.656 778.4C175.152 782.43 163.292 784.514 150.076 784.514Z" fill="#333333"/>
<path d="M257.301 781.04V591.886H318.861C332.286 591.886 344.181 593.553 354.58 596.958C364.98 600.327 373.153 605.886 379.066 613.667C384.943 621.449 387.9 631.87 387.9 644.967C387.9 659.558 383.9 671.334 375.901 680.297C367.901 689.225 357.085 695.339 343.486 698.604L393.604 781.075H365.362L317.922 701.21H282.203V781.075L257.301 781.04ZM282.203 681.582H315.244C330.652 681.582 342.477 678.56 350.685 672.481C358.893 666.401 362.997 657.265 362.997 644.967C362.997 632.461 358.893 623.742 350.685 618.739C342.477 613.737 330.652 611.235 315.244 611.235H282.203V681.582Z" fill="#333333"/>
<path d="M399.17 781.04L465.843 591.886H494.05L560.723 781.04H534.012L515.405 723.373H443.654L424.768 781.04H399.17ZM459.235 675.225L449.914 704.058H509.04L499.719 675.225C496.102 664.629 492.728 654.138 489.528 643.647C486.329 633.191 483.129 622.456 479.929 611.513H478.712C475.721 622.456 472.591 633.191 469.391 643.647C466.226 654.138 462.817 664.629 459.235 675.225Z" fill="#333333"/>
<path d="M579.922 781.04V591.886H636.057C650.873 591.886 663.776 593.623 674.767 597.062C685.757 600.501 694.383 606.337 700.608 614.501C706.799 622.665 709.93 633.677 709.93 647.538C709.93 667.339 703.217 682.034 689.792 691.657C676.402 701.279 658.872 706.073 637.274 706.073H604.824V781.04H579.922ZM604.824 686.48H634.248C651.464 686.48 664.229 683.354 672.541 677.101C680.853 670.848 684.992 661.017 684.992 647.538C684.992 633.885 680.645 624.402 671.95 619.121C663.255 613.841 650.282 611.201 633.066 611.201H604.824V686.48Z" fill="#333333"/>
<path d="M740.605 781.04V591.886H765.508V671.195H857.084V591.886H882.299V781.04H857.084V691.934H765.508V781.04H740.605Z" fill="#333333"/>
<path d="M935.268 781.04V591.886H960.17V781.04H935.268Z" fill="#333333"/>
<path d="M1078.88 784.514C1062.46 784.514 1047.82 780.623 1034.88 772.842C1021.98 765.06 1011.75 753.874 1004.27 739.249C996.76 724.658 993.004 707.046 993.004 686.48C993.004 666.088 996.795 648.614 1004.41 633.989C1012.03 619.364 1022.43 608.143 1035.64 600.258C1048.83 592.372 1063.75 588.446 1080.37 588.446C1092.37 588.446 1102.98 590.809 1112.19 595.533C1121.41 600.223 1128.82 605.677 1134.42 611.826L1120.89 627.389C1115.71 622.004 1109.8 617.697 1103.19 614.396C1096.58 611.096 1089.07 609.498 1080.68 609.498C1068.27 609.498 1057.42 612.625 1048.1 618.878C1038.77 625.131 1031.57 633.92 1026.46 645.28C1021.38 656.639 1018.81 670.153 1018.81 685.924C1018.81 701.696 1021.31 715.383 1026.32 727.021C1031.33 738.658 1038.36 747.621 1047.47 753.978C1056.58 760.336 1067.33 763.497 1079.75 763.497C1089.17 763.497 1097.55 761.586 1104.96 757.73C1112.37 753.909 1119.19 748.698 1125.38 742.167L1139.18 757.174C1131.36 765.824 1122.56 772.564 1112.75 777.358C1102.98 782.082 1091.67 784.514 1078.88 784.514Z" fill="#333333"/>
<path d="M1223.32 784.514C1209.51 784.514 1196.67 781.978 1184.88 776.871C1173.06 771.765 1162.87 764.99 1154.24 756.549L1169.27 739.839C1176.29 746.961 1184.54 752.693 1194.03 757C1203.53 761.343 1213.4 763.497 1223.59 763.497C1236.6 763.497 1246.72 760.648 1253.92 754.986C1261.12 749.323 1264.74 741.854 1264.74 732.614C1264.74 726.083 1263.28 720.906 1260.39 717.05C1257.5 713.229 1253.57 709.929 1248.67 707.254C1243.77 704.579 1238.2 701.869 1232.01 699.195L1203.77 687.383C1197.58 684.882 1191.42 681.616 1185.3 677.587C1179.21 673.557 1174.1 668.346 1170 662.024C1165.89 655.666 1163.84 647.885 1163.84 638.679C1163.84 629.056 1166.48 620.476 1171.81 612.868C1177.09 605.295 1184.47 599.32 1193.86 595.012C1203.25 590.704 1213.86 588.516 1225.68 588.516C1237.47 588.516 1248.39 590.704 1258.41 595.012C1268.42 599.354 1276.91 604.947 1283.94 611.86L1270.41 627.423C1264.39 621.83 1257.75 617.453 1250.44 614.292C1243.14 611.131 1234.9 609.533 1225.68 609.533C1214.69 609.533 1205.82 612.034 1199.11 617.036C1192.4 622.039 1189.06 628.744 1189.06 637.22C1189.06 643.16 1190.69 648.128 1194.03 652.054C1197.33 656.014 1201.47 659.245 1206.48 661.711C1211.49 664.212 1216.6 666.505 1221.78 668.624L1249.71 680.157C1257.33 683.215 1264.18 686.932 1270.27 691.239C1276.39 695.582 1281.22 700.862 1284.84 707.115C1288.46 713.368 1290.23 721.184 1290.23 730.599C1290.23 740.604 1287.52 749.67 1282.13 757.869C1276.74 766.033 1269.02 772.529 1259 777.323C1248.98 782.117 1237.12 784.514 1223.32 784.514Z" fill="#333333"/>
<path d="M1442.57 784.514C1428.76 784.514 1415.93 781.978 1404.14 776.871C1392.31 771.765 1382.12 764.99 1373.5 756.549L1388.52 739.839C1395.55 746.961 1403.79 752.693 1413.28 757C1422.78 761.343 1432.66 763.497 1442.85 763.497C1455.86 763.497 1465.98 760.648 1473.18 754.986C1480.37 749.323 1483.99 741.854 1483.99 732.614C1483.99 726.083 1482.53 720.906 1479.64 717.05C1476.76 713.229 1472.83 709.929 1467.92 707.254C1463.02 704.579 1457.46 701.869 1451.26 699.195L1423.02 687.383C1416.83 684.882 1410.68 681.616 1404.55 677.587C1398.47 673.557 1393.36 668.346 1389.25 662.024C1385.15 655.666 1383.1 647.885 1383.1 638.679C1383.1 629.056 1385.74 620.476 1391.06 612.868C1396.35 605.295 1403.72 599.32 1413.11 595.012C1422.5 590.704 1433.11 588.516 1444.93 588.516C1456.72 588.516 1467.65 590.704 1477.66 595.012C1487.68 599.354 1496.17 604.947 1503.19 611.86L1489.66 627.423C1483.64 621.83 1477 617.453 1469.7 614.292C1462.39 611.131 1454.15 609.533 1444.93 609.533C1433.94 609.533 1425.07 612.034 1418.36 617.036C1411.65 622.039 1408.31 628.744 1408.31 637.22C1408.31 643.16 1409.95 648.128 1413.28 652.054C1416.59 656.014 1420.73 659.245 1425.74 661.711C1430.74 664.212 1435.86 666.505 1441.04 668.624L1468.97 680.157C1476.58 683.215 1483.44 686.932 1489.52 691.239C1495.64 695.582 1500.48 700.862 1504.09 707.115C1507.71 713.368 1509.49 721.184 1509.49 730.599C1509.49 740.604 1506.77 749.67 1501.38 757.869C1495.99 766.033 1488.27 772.529 1478.25 777.323C1468.24 782.117 1456.38 784.514 1442.57 784.514Z" fill="#333333"/>
<path d="M1608.4 784.515C1594.98 784.515 1582.94 781.909 1572.23 776.733C1561.52 771.557 1553.07 762.976 1546.88 751.061C1540.68 739.145 1537.55 723.096 1537.55 702.912V591.921H1562.46V703.503C1562.46 718.719 1564.51 730.669 1568.61 739.423C1572.72 748.178 1578.21 754.361 1585.13 758.009C1592.05 761.656 1599.78 763.498 1608.4 763.498C1617.2 763.498 1625.1 761.691 1632.12 758.009C1639.11 754.361 1644.68 748.178 1648.78 739.423C1652.89 730.669 1654.94 718.719 1654.94 703.503V591.921H1678.97V702.912C1678.97 723.096 1675.87 739.145 1669.65 751.061C1663.46 762.976 1655.04 771.522 1644.43 776.733C1633.83 781.909 1621.83 784.515 1608.4 784.515Z" fill="#333333"/>
<path d="M1722.72 781.04V591.886H1747.63V781.04H1722.72Z" fill="#333333"/>
<path d="M1832.87 781.04V612.069H1773.43V591.886H1917.56V612.069H1858.12V781.04H1832.87Z" fill="#333333"/>
<path d="M1952.93 781.04V591.886H2066.42V612.069H1977.87V671.473H2052.61V691.934H1977.87V760.579H2069.41V781.04H1952.93Z" fill="#333333"/>
<path d="M212.679 516.016C179.708 516.016 149.762 508.338 122.842 492.983C95.9225 477.629 74.4981 455.083 58.6036 425.381C42.7091 395.644 34.7793 359.516 34.7793 316.995C34.7793 274.856 42.9178 238.763 59.1949 208.609C75.4719 178.49 97.279 155.458 124.616 139.513C151.953 123.568 182.107 115.612 215.079 115.612C240.016 115.612 262.136 120.545 281.439 130.376C300.742 140.208 316.602 151.637 329.088 164.629L291.699 208.922C281.648 198.708 270.483 190.545 258.241 184.431C245.998 178.316 232.191 175.259 216.922 175.259C195.602 175.259 176.612 180.887 159.918 192.073C143.223 203.294 130.181 219.343 120.721 240.222C111.261 261.1 106.53 286.077 106.53 315.223C106.53 359.342 116.373 393.873 136.093 418.885C155.814 443.897 182.142 456.368 215.079 456.368C232.782 456.368 248.433 452.756 262.136 445.46C275.805 438.2 288.256 428.647 299.525 416.835L336.913 459.947C320.845 478.046 302.411 491.941 281.717 501.599C261.023 511.187 238.034 516.016 212.679 516.016Z" fill="#333333"/>
<path d="M495.962 516.015C471.442 516.015 448.522 510.005 427.202 497.985C405.882 485.966 388.596 468.666 375.345 446.016C362.094 423.401 355.451 396.096 355.451 364.24C355.451 331.967 362.094 304.489 375.345 281.839C388.596 259.223 405.882 241.889 427.202 229.869C448.522 217.884 471.408 211.874 495.962 211.874C520.9 211.874 543.994 217.884 565.314 229.869C586.634 241.889 603.92 259.223 617.171 281.839C630.457 304.489 637.065 331.932 637.065 364.24C637.065 396.13 630.457 423.401 617.171 446.016C603.92 468.666 586.634 485.966 565.314 497.985C543.994 510.005 520.9 516.015 495.962 516.015ZM495.962 460.502C517.7 460.502 534.777 451.643 547.228 433.927C559.679 416.21 565.94 393.004 565.94 364.24C565.94 335.128 559.679 311.68 547.228 293.963C534.777 276.246 517.665 267.387 495.962 267.387C474.26 267.387 457.252 276.246 445.01 293.963C432.732 311.68 426.611 335.128 426.611 364.24C426.611 393.004 432.732 416.21 445.01 433.927C457.252 451.643 474.26 460.502 495.962 460.502Z" fill="#333333"/>
<path d="M677.793 508.928V218.961H733.963L738.693 270.34H741.058C751.283 251.442 763.7 236.99 778.307 226.916C792.915 216.842 807.87 211.874 823.243 211.874C837.016 211.874 848.076 213.854 856.353 217.78L844.528 276.836C839.416 275.273 834.651 274.092 830.338 273.293C825.991 272.529 820.669 272.112 814.374 272.112C802.931 272.112 790.932 276.524 778.307 285.382C765.682 294.241 754.865 309.699 745.788 331.724V508.894L677.793 508.928Z" fill="#333333"/>
<path d="M1000.06 516.015C973.248 516.015 949.006 510.005 927.338 497.985C905.636 485.966 888.489 468.666 875.899 446.016C863.274 423.401 856.979 396.096 856.979 364.24C856.979 332.731 863.378 305.6 876.212 282.742C889.011 259.918 905.671 242.41 926.191 230.182C946.676 217.988 968.17 211.874 990.638 211.874C1017.04 211.874 1039.12 217.675 1056.86 229.278C1074.6 240.881 1088.02 257.035 1097.06 277.705C1106.11 298.374 1110.66 322.275 1110.66 349.441C1110.66 363.615 1109.66 374.627 1107.71 382.513H923.234C926.365 408.115 935.651 427.986 951.024 442.16C966.396 456.333 985.699 463.42 1008.97 463.42C1021.59 463.42 1033.31 461.544 1044.16 457.792C1055.02 454.075 1065.76 448.864 1076.37 442.16L1099.43 484.68C1085.62 493.747 1070.25 501.216 1053.31 507.122C1036.34 513.062 1018.6 516.015 1000.06 516.015ZM922.608 336.483H1051.5C1051.5 314.042 1046.56 296.429 1036.72 283.645C1026.84 270.861 1012.1 264.434 992.377 264.434C975.439 264.434 960.345 270.653 947.163 283.054C933.947 295.422 925.773 313.243 922.608 336.483Z" fill="#333333"/>
<path d="M1225.79 516.016C1201.75 516.016 1184.68 508.755 1174.62 494.165C1164.57 479.609 1159.56 459.703 1159.56 434.518V122.699H1227.56V438.061C1227.56 446.329 1229.12 452.13 1232.29 455.465C1235.42 458.835 1238.79 460.502 1242.34 460.502C1243.91 460.502 1245.37 460.433 1246.76 460.225C1248.15 460.016 1250.2 459.738 1252.95 459.321L1261.82 510.11C1257.85 511.673 1252.84 513.063 1246.72 514.244C1240.67 515.425 1233.68 516.016 1225.79 516.016Z" fill="#333333"/>
<path d="M1316.28 508.929V122.699H1419.75C1478.88 122.699 1525 138.644 1558.11 170.535C1591.22 202.426 1607.77 250.261 1607.77 314.042C1607.77 378.206 1591.43 426.736 1558.7 459.599C1525.97 492.462 1480.86 508.894 1423.3 508.894L1316.28 508.929ZM1384.87 453.416H1415.02C1454.05 453.416 1484.2 442.091 1505.49 419.441C1526.77 396.826 1537.41 361.67 1537.41 314.042C1537.41 266.797 1526.77 232.336 1505.49 210.693C1484.2 189.051 1454.05 178.212 1415.02 178.212H1384.87V453.416Z" fill="#333333"/>
<path d="M1671.35 508.929V122.699H1802.02C1828.84 122.699 1852.97 126.243 1874.47 133.329C1895.96 140.416 1912.9 152.332 1925.32 169.041C1937.73 185.785 1943.96 208.54 1943.96 237.269C1943.96 266.797 1936.97 290.628 1922.95 308.727C1908.97 326.826 1890.33 339.854 1867.09 347.705L1959.33 508.929H1882.47L1799.1 357.744H1739.97V508.929H1671.35ZM1739.9 303.412H1794.89C1821.29 303.412 1841.5 297.784 1855.51 286.598C1869.49 275.378 1876.52 258.946 1876.52 237.304C1876.52 215.244 1869.53 199.785 1855.51 190.962C1841.53 182.103 1821.32 177.657 1794.89 177.657H1739.9V303.412Z" fill="#333333"/>
<path d="M1975.5 508.929L2101.44 122.699H2181.85L2307.79 508.929H2235.66L2205.5 404.399H2075.43L2045.27 508.929H1975.5ZM2104.99 303.412L2091.39 350.657H2190.13L2176.53 303.412C2170.2 282.951 2164.22 261.864 2158.48 240.222C2152.74 218.544 2147.14 197.11 2141.65 175.85H2139.28C2134.17 197.527 2128.74 219.066 2123.04 240.5C2117.3 261.968 2111.32 282.951 2104.99 303.412Z" fill="#333333"/>
<path d="M2355.65 508.928L2278.79 122.699H2349.15L2382.85 317.585C2386.01 338.047 2389.25 358.612 2392.62 379.282C2395.96 399.952 2399.02 420.552 2401.77 440.979H2404.13C2408.48 420.517 2412.72 399.917 2416.83 379.282C2420.97 358.612 2425.21 338.047 2429.56 317.585L2476.86 122.699H2536.57L2583.88 317.585C2588.22 337.665 2592.54 358.056 2596.88 378.691C2601.23 399.361 2605.54 420.135 2609.89 440.979H2612.26C2615.39 420.101 2618.55 399.465 2621.72 378.969C2624.85 358.508 2627.84 338.047 2630.59 317.551L2664.29 122.664H2729.92L2656.01 508.928H2570.87L2522.98 305.774C2519.81 290.801 2516.75 275.864 2513.79 260.891C2510.84 245.919 2508.16 231.189 2505.83 216.599H2503.46C2500.68 231.154 2497.83 245.919 2494.87 260.891C2491.92 275.864 2488.86 290.801 2485.69 305.774L2438.98 508.928H2355.65Z" fill="#333333"/>
<path d="M3225.98 782.013H3138.93L3128.04 716.808H3236.87L3225.98 782.013Z" fill="#61A706"/>
<path d="M3341.87 47.9053C3426.25 104.148 3448.26 186.445 3438.77 260.717C3419.05 457.375 3215.13 681.304 3231.41 666.644C3276.83 628.118 3429.69 446.676 3458.38 276.767C3487.18 106.753 3341.87 47.9053 3341.87 47.9053Z" fill="#979797"/>
<path d="M2921.24 260.717C2911.75 186.444 2933.83 104.147 3018.14 47.9395C3018.14 47.9395 2872.86 106.788 2901.59 276.766C2930.32 446.71 3083.28 628.118 3128.6 666.643C3144.91 681.303 2941 457.375 2921.24 260.717Z" fill="#979797"/>
<path d="M3088.22 291.461C3094.27 395.018 3121.09 532.134 3167.07 675.467H3189.78C3235.65 532.134 3262.47 395.088 3268.52 291.53C3277.25 141.979 3246.16 45.9248 3196.42 19.3841C3191.79 16.9176 3186.68 14.8333 3178.4 14.6943C3170.16 14.7986 3164.98 17.0219 3160.35 19.5231C3110.62 45.9943 3079.56 141.944 3088.22 291.461Z" fill="#979797"/>
<path d="M3155 673.73C3155 673.73 3020.47 451.574 3010.73 257.938C3000.99 64.2325 3136.22 13.8955 3136.22 13.8955C3123.63 14.4166 3095.56 22.4761 3069.06 34.8779C3042.55 47.2798 2948.96 103.905 2947.15 243.73C2949.55 376.225 3072.19 601.438 3155 673.73Z" fill="#979797"/>
<path d="M3348.65 257.903C3338.88 451.609 3204.42 673.73 3204.42 673.73C3287.2 601.438 3409.87 376.225 3412.27 243.73C3410.42 103.905 3316.83 47.3145 3290.33 34.8779C3263.86 22.4761 3235.83 14.4166 3223.2 13.8955C3223.2 13.8955 3358.36 64.2325 3348.65 257.903Z" fill="#979797"/>
</svg>
