<svg width="3862" height="853" viewBox="0 0 3862 853" fill="none" xmlns="http://www.w3.org/2000/svg">
<g clip-path="url(#clip0_116_98)">
<path d="M319.158 209.86H560.467L523.169 352.753C517.905 371.475 506.653 387.966 491.128 399.717C475.587 411.683 456.434 418.024 436.808 417.704H325.416C300.901 417.288 276.974 425.218 257.579 440.187C237.76 455.536 223.376 476.807 216.527 500.892C211.606 518.646 211.005 537.317 214.775 555.351C218.54 571.679 225.61 587.065 235.551 600.567C245.717 613.962 258.931 624.751 274.1 632.043C290.049 639.912 307.626 643.933 325.416 643.784H393.002C405.409 643.542 417.164 649.316 424.543 659.273C432.429 668.914 434.965 681.851 431.301 693.747L388.747 851.629H313.651C264.451 852.116 215.884 840.535 172.22 817.904C130.467 796.806 93.885 766.782 65.0832 729.97C36.6468 693.17 16.804 650.494 7.00896 605.063C-3.48621 556.922 -2.19831 506.962 10.7638 459.423L15.0192 442.186C24.0295 408.623 38.5803 376.795 58.0742 348.006C77.2463 320.09 100.734 295.383 127.663 274.811C154.583 254.197 184.681 238.081 216.777 227.097C249.674 215.58 284.296 209.751 319.158 209.86ZM441.064 852.628L650.832 65.9678C656.097 46.9111 667.541 30.1322 683.374 18.2536C698.9 6.05426 718.186 -0.390907 737.943 0.0172869H960.979C1009.81 -0.284337 1057.99 11.2002 1101.41 33.4922C1186.9 76.8447 1248.31 156.295 1268.62 249.83C1279.18 297.906 1277.72 347.841 1264.37 395.221L1260.11 411.209C1251.13 444.816 1236.67 476.717 1217.31 505.638C1198.61 534.197 1175.35 559.51 1148.47 580.582C1093.51 622.833 1026.1 645.755 956.723 645.783H763.476L801.024 499.643C806.222 480.954 817.383 464.466 832.815 452.678C848.438 440.658 867.659 434.234 887.385 434.441H951.216C1002.47 434.329 1047.06 399.408 1059.35 349.755C1064.21 332.749 1064.73 314.801 1060.86 297.544C1057.2 281.179 1050.12 265.77 1040.08 252.328C1029.58 239.223 1016.34 228.565 1001.28 221.101C985.787 213.153 968.636 208.96 951.216 208.861H830.812L675.864 787.427C670.484 806.095 659.256 822.553 643.823 834.391C628.661 846.373 609.845 852.809 590.505 852.628H441.064ZM1772.52 432.693L1775.77 420.952C1777.36 415.968 1776.33 410.518 1773.02 406.462C1769.92 402.24 1764.99 399.737 1759.75 399.717H1412.81C1371.23 399.892 1335.25 370.879 1326.7 330.27C1323.57 316.622 1323.57 302.448 1326.7 288.801L1348.22 207.861H1818.58C1846.39 207.462 1873.86 214.078 1898.43 227.097C1921.94 239.173 1942.53 256.223 1958.75 277.06C1974.98 297.958 1986.35 322.191 1992.05 348.006C1998.06 375.233 1997.45 403.497 1990.29 430.444L1905.94 743.959C1889.11 807.719 1831.07 851.953 1765.01 851.379L1418.06 849.38C1360.33 849.814 1305.74 823.175 1270.62 777.434C1254.01 755.184 1242.4 729.623 1236.58 702.49C1230.07 674.124 1230.76 644.589 1238.58 616.555L1242.84 600.567C1247.95 580.79 1256.42 562.033 1267.87 545.108C1279.31 528.508 1293.24 513.762 1309.17 501.391C1325.08 489.759 1342.74 480.736 1361.49 474.661C1381.05 467.912 1401.62 464.533 1422.32 464.669H1713.69L1692.41 544.609C1687.07 563.293 1675.83 579.76 1660.37 591.574C1645.15 603.412 1626.35 609.752 1607.05 609.56H1476.89C1465.62 608.874 1455.62 616.709 1453.61 627.796C1451.28 634.974 1452.9 642.844 1457.86 648.531C1462.43 654.35 1469.48 657.682 1476.89 657.524H1687.16C1694.45 657.632 1701.57 655.351 1707.43 651.029C1713.08 646.961 1716.94 640.876 1718.2 634.042L1720.2 625.548L1772.52 432.693ZM2394.06 209.86C2443.59 209.3 2492.5 220.881 2536.49 243.585C2578.44 264.94 2615.11 295.313 2643.88 332.518C2672.59 369.902 2692.44 413.29 2701.95 459.423C2712.37 507.706 2710.73 557.806 2697.2 605.313L2643.88 805.163C2640.63 818.921 2632.44 831.009 2620.85 839.138C2609.71 847.617 2596.07 852.184 2582.05 852.128H2466.65C2440.24 852.634 2420.87 827.516 2428.1 802.166L2492.19 560.347C2497.13 543.362 2497.73 525.413 2493.94 508.136C2490.25 491.738 2483.08 476.32 2472.91 462.92C2451.56 435.034 2418.46 418.606 2383.3 418.453H2263.64L2160.26 805.663C2156.91 819.374 2148.74 831.429 2137.23 839.638C2125.69 848.278 2111.6 852.847 2097.18 852.628H1982.78C1970.81 852.51 1959.59 846.772 1952.5 837.139C1944.39 827.508 1941.75 814.426 1945.49 802.415L2102.69 209.86H2394.06ZM3022.86 412.958C3014.55 419.362 3008.29 428.042 3004.84 437.939L2956.78 619.053C2953.84 628.595 2955.8 638.973 2962.04 646.782C2967.84 654.803 2977.16 659.545 2987.07 659.523H3429.38L3395.09 786.178C3389.81 804.892 3378.56 821.379 3363.05 833.142C3347.91 845.16 3329.08 851.601 3309.73 851.379H2907.72C2879.89 851.733 2852.39 845.302 2827.62 832.643C2804.04 820.663 2783.43 803.597 2767.29 782.68C2751.25 761.485 2739.9 737.132 2734 711.234C2728.04 684.204 2728.99 656.115 2736.75 629.545L2801.83 387.727C2808.84 361.908 2820.09 337.427 2835.12 315.281C2864.19 271.818 2906.76 239.081 2956.28 222.101C2981.42 213.124 3007.93 208.56 3034.63 208.611H3319.74C3347.63 208.328 3375.15 214.937 3399.85 227.846C3423.35 239.929 3443.94 256.98 3460.17 277.809C3476.45 298.676 3487.59 323.06 3492.72 349.006C3498.43 376.188 3497.75 404.322 3490.71 431.194L3471.44 503.64C3463.63 534.576 3445.32 561.858 3419.62 580.832C3394.41 600.265 3363.37 610.649 3331.51 610.31H3009.1L3030.37 531.369C3035.06 512.641 3046.01 496.07 3061.41 484.404C3076.96 472.439 3096.11 466.097 3115.73 466.417H3246.15C3257.44 467.009 3267.46 459.246 3269.68 448.181L3273.94 432.193C3277.77 416.745 3266.35 401.703 3250.41 401.216H3051.9C3041.14 401.603 3030.86 405.76 3022.86 412.958ZM3429.38 852.628L3644.16 47.9813C3647.53 34.1372 3655.57 21.8734 3666.94 13.2574C3678.47 4.57862 3692.55 -0.0736449 3706.99 0.0172869H3821.39C3834.09 -0.29995 3846.18 5.45496 3853.93 15.5057C3861.73 25.1992 3864.08 38.1722 3860.19 49.9798L3699.98 643.784C3692.39 674.182 3679.51 703.015 3661.93 728.971C3645.06 754.029 3624.17 776.143 3600.1 794.421C3576.03 812.816 3549.15 827.237 3520.5 837.139C3491.22 847.389 3460.41 852.626 3429.38 852.628Z" fill="#F26C32"/>
</g>
<defs>
<clipPath id="clip0_116_98">
<rect width="3861.94" height="852.636" fill="white"/>
</clipPath>
</defs>
</svg>
