<svg width="2953" height="1903" viewBox="0 0 2953 1903" fill="none" xmlns="http://www.w3.org/2000/svg">
<g clip-path="url(#clip0_117_160)">
<path d="M2553.44 687.913C2537.97 585.065 2476.08 495.765 2364.42 415.088L2299.84 375.057L2256.79 434.795C2201.63 511.778 2174.05 618.937 2182.8 721.785C2186.83 757.505 2199.61 822.786 2239.3 878.829C2199.61 899.152 2120.91 926.25 2015.98 924.402H11.4351L7.39915 945.957C-11.4355 1048.81 -11.4355 1370.9 213.907 1617.86C385.437 1805.69 641.722 1901.15 976.71 1901.15C1703.19 1901.15 2239.97 1591.38 2492.22 1027.25C2591.11 1029.1 2804.34 1027.87 2913.99 833.871C2916.68 829.56 2923.4 817.859 2942.24 780.908L2953 760.584L2891.79 722.401C2824.52 682.37 2671.83 666.974 2553.44 687.913ZM1614.4 0H1309.68V256.813H1614.4V0ZM1614.4 308.545H1309.68V565.357H1614.4V308.545ZM1253.85 308.545H949.13V565.357H1253.85V308.545ZM893.972 308.545H589.254V565.357H893.972V308.545ZM533.423 617.089H228.706V873.902H533.423V617.089ZM893.972 617.089H589.254V873.902H893.972V617.089ZM1253.85 617.089H949.13V873.902H1253.85V617.089ZM1614.4 617.089H1309.68V873.902H1614.4V617.089ZM1974.94 617.089H1670.23V873.902H1974.94V617.089Z" fill="#1D63ED"/>
</g>
<defs>
<clipPath id="clip0_117_160">
<rect width="2953" height="1903" fill="white"/>
</clipPath>
</defs>
</svg>
