<svg width="1489" height="1458" viewBox="0 0 1489 1458" fill="none" xmlns="http://www.w3.org/2000/svg">
<g clip-path="url(#clip0_117_156)">
<path fill-rule="evenodd" clip-rule="evenodd" d="M742.282 0C331.819 0 0 334.125 0 747.483C0 1077.9 212.608 1357.6 507.551 1456.59C544.427 1464.03 557.934 1440.5 557.934 1420.71C557.934 1403.39 556.719 1343.99 556.719 1282.1C350.234 1326.66 307.235 1192.99 307.235 1192.99C274.052 1106.36 224.885 1084.1 224.885 1084.1C157.302 1038.31 229.807 1038.31 229.807 1038.31C304.774 1043.26 344.111 1115.04 344.111 1115.04C410.463 1228.88 517.382 1196.71 560.396 1176.91C566.534 1128.64 586.21 1095.23 607.102 1076.67C442.415 1059.34 269.144 994.994 269.144 707.874C269.144 626.196 298.62 559.371 345.326 507.399C337.957 488.84 312.143 412.098 352.711 309.385C352.711 309.385 415.385 289.58 556.704 386.112C617.207 369.75 679.603 361.426 742.282 361.356C804.956 361.356 868.847 370.028 927.845 386.112C1069.18 289.58 1131.85 309.385 1131.85 309.385C1172.42 412.098 1146.59 488.84 1139.22 507.399C1187.16 559.371 1215.42 626.196 1215.42 707.874C1215.42 994.994 1042.15 1058.1 876.231 1076.67C903.276 1100.18 926.614 1144.73 926.614 1215.27C926.614 1315.51 925.398 1395.96 925.398 1420.7C925.398 1440.5 938.921 1464.03 975.781 1456.6C1270.72 1357.58 1483.33 1077.9 1483.33 747.483C1484.55 334.125 1151.51 0 742.282 0Z" fill="#24292F"/>
</g>
<defs>
<clipPath id="clip0_117_156">
<rect width="1489" height="1458" fill="white"/>
</clipPath>
</defs>
</svg>
