<svg width="771" height="802" viewBox="0 0 771 802" fill="none" xmlns="http://www.w3.org/2000/svg">
<path fill-rule="evenodd" clip-rule="evenodd" d="M765.233 178.35C765.517 179.402 765.662 180.485 765.665 181.574V350.796C765.665 352.968 765.092 355.101 764.003 356.981C762.915 358.86 761.35 360.419 759.466 361.499L617.463 443.273V605.354C617.463 609.765 615.119 613.836 611.295 616.057L314.876 786.729C314.198 787.115 313.458 787.361 312.718 787.624C312.44 787.716 312.178 787.886 311.885 787.963C309.813 788.509 307.635 788.509 305.563 787.963C305.223 787.87 304.915 787.685 304.591 787.562C303.913 787.315 303.203 787.099 302.556 786.729L6.19884 616.057C4.31617 614.976 2.75186 613.417 1.66358 611.537C0.575296 609.658 0.00149172 607.525 0 605.354L0 97.6878C0 96.5773 0.1542 95.4977 0.43176 94.4489C0.52428 94.0942 0.74016 93.7703 0.86352 93.4156C1.09482 92.7678 1.3107 92.1046 1.64994 91.5031C1.88124 91.1021 2.22048 90.7782 2.49804 90.4081C2.8527 89.9146 3.17652 89.4056 3.59286 88.9737C3.94752 88.619 4.41012 88.3568 4.81104 88.0484C5.25822 87.6782 5.65914 87.2772 6.168 86.9842L154.37 1.64828C156.246 0.568368 158.373 0 160.538 0C162.702 0 164.829 0.568368 166.706 1.64828L314.892 86.9842H314.923C315.416 87.2926 315.832 87.6782 316.28 88.0329C316.681 88.3414 317.128 88.619 317.482 88.9583C317.914 89.4056 318.223 89.9146 318.593 90.4081C318.855 90.7782 319.209 91.1021 319.425 91.5031C319.78 92.1201 319.98 92.7678 320.227 93.4156C320.351 93.7703 320.566 94.0942 320.659 94.4644C320.943 95.5154 321.088 96.5991 321.091 97.6878V414.771L444.574 343.655V181.558C444.574 180.479 444.728 179.384 445.006 178.35C445.114 177.98 445.314 177.656 445.438 177.302C445.684 176.654 445.9 175.991 446.239 175.389C446.471 174.988 446.81 174.664 447.072 174.294C447.442 173.801 447.751 173.292 448.182 172.86C448.537 172.505 448.984 172.243 449.385 171.934C449.848 171.564 450.249 171.163 450.742 170.87L598.959 85.5344C600.835 84.453 602.962 83.8837 605.127 83.8837C607.292 83.8837 609.419 84.453 611.295 85.5344L759.481 170.87C760.006 171.179 760.406 171.564 760.869 171.919C761.255 172.228 761.702 172.505 762.056 172.844C762.488 173.292 762.797 173.801 763.167 174.294C763.444 174.664 763.783 174.988 763.999 175.389C764.354 175.991 764.554 176.654 764.801 177.302C764.94 177.656 765.14 177.98 765.233 178.35ZM740.962 343.655V202.935L689.104 232.794L617.463 274.051V414.771L740.977 343.655H740.962ZM592.776 598.213V457.4L522.306 497.654L321.075 612.525V754.665L592.776 598.213ZM24.7028 119.049V598.213L296.372 754.649V612.541L154.447 532.202L154.4 532.171L154.339 532.14C153.861 531.863 153.46 531.462 153.013 531.122C152.627 530.814 152.18 530.567 151.841 530.228L151.81 530.182C151.409 529.796 151.131 529.318 150.792 528.886C150.484 528.47 150.114 528.115 149.867 527.683L149.852 527.637C149.574 527.174 149.404 526.619 149.204 526.095C149.003 525.632 148.741 525.2 148.618 524.706C148.464 524.12 148.433 523.488 148.371 522.887C148.31 522.424 148.186 521.961 148.186 521.498V521.468V190.165L76.5603 148.892L24.7028 119.049ZM160.553 26.6028L37.0851 97.6878L160.522 168.773L283.975 97.6724L160.522 26.6028H160.553ZM224.762 470.232L296.388 428.991V119.049L244.53 148.908L172.889 190.165V500.107L224.762 470.232ZM605.127 110.489L481.675 181.574L605.127 252.659L728.564 181.558L605.127 110.489ZM592.776 274.051L521.134 232.794L469.277 202.935V343.655L540.903 384.896L592.776 414.771V274.051ZM308.708 591.165L489.785 487.768L580.301 436.101L456.941 365.062L314.907 446.851L185.456 521.391L308.708 591.165Z" fill="#FF2D20"/>
</svg>
