<svg width="2814" height="571" viewBox="0 0 2814 571" fill="none" xmlns="http://www.w3.org/2000/svg">
<g clip-path="url(#clip0_117_215)">
<path d="M1870.66 0.236328H2360.81V90.6465H2166.37V566.282H2069.15V90.6465H1870.66V0.236328Z" fill="black"/>
<path d="M1064.55 0.236328V90.6465H671.661V236.089H987.622V326.499H671.661V475.872H1064.55V566.282H574.442V90.6465H574.401V0.236328H1064.55Z" fill="black"/>
<path d="M1309.3 0.47168H1182.07L1637.78 566.518H1765.38L1537.49 283.689L1765.01 0.903537L1637.78 1.10003L1473.79 204.63L1309.3 0.47168Z" fill="black"/>
<path d="M1439.85 404.802L1376.14 325.634L1181.7 566.951H1309.3L1439.85 404.802Z" fill="black"/>
<path fill-rule="evenodd" clip-rule="evenodd" d="M577.848 566.282L121.524 0H0V566.046H97.2194V120.992L455.716 566.282H577.848Z" fill="black"/>
<path d="M2382.67 562.824C2375.54 562.824 2369.49 560.36 2364.42 555.43C2359.35 550.5 2356.84 544.532 2356.9 537.461C2356.84 530.585 2359.35 524.681 2364.42 519.752C2369.49 514.822 2375.54 512.356 2382.67 512.356C2389.51 512.356 2395.51 514.822 2400.58 519.752C2405.72 524.681 2408.28 530.585 2408.36 537.461C2408.28 542.131 2407.1 546.412 2404.73 550.239C2402.29 554.132 2399.2 557.181 2395.31 559.387C2391.49 561.657 2387.27 562.824 2382.67 562.824Z" fill="black"/>
<path d="M2548.6 324.366H2591.68V490.237C2591.62 505.481 2588.32 518.52 2581.87 529.483C2575.35 540.445 2566.32 548.813 2554.73 554.716C2543.2 560.554 2529.69 563.539 2514.35 563.539C2500.31 563.539 2487.73 561.009 2476.53 556.079C2465.34 551.149 2456.44 543.754 2449.92 534.023C2443.33 524.293 2440.1 512.162 2440.1 497.632H2483.26C2483.32 503.989 2484.77 509.502 2487.53 514.108C2490.3 518.714 2494.12 522.216 2499 524.682C2503.93 527.147 2509.6 528.38 2515.99 528.38C2522.91 528.38 2528.84 526.952 2533.64 524.033C2538.45 521.178 2542.14 516.897 2544.71 511.189C2547.21 505.546 2548.53 498.54 2548.6 490.237V324.366Z" fill="black"/>
<path d="M2768.94 389.235C2767.89 379.18 2763.28 371.331 2755.24 365.753C2747.14 360.109 2736.67 357.32 2723.82 357.32C2714.8 357.32 2707.03 358.682 2700.57 361.342C2694.11 364.066 2689.11 367.698 2685.68 372.304C2682.26 376.91 2680.54 382.165 2680.41 388.068C2680.41 392.998 2681.59 397.279 2683.9 400.847C2686.21 404.479 2689.3 407.528 2693.32 409.994C2697.27 412.523 2701.68 414.599 2706.5 416.285C2711.37 417.972 2716.25 419.399 2721.12 420.567L2743.58 426.081C2752.61 428.156 2761.37 430.947 2769.73 434.514C2778.1 438.017 2785.67 442.493 2792.32 447.877C2798.98 453.261 2804.25 459.748 2808.14 467.338C2812.02 474.927 2814 483.814 2814 494.063C2814 507.88 2810.44 520.011 2803.26 530.52C2796.08 540.963 2785.74 549.137 2772.17 555.041C2758.66 560.879 2742.33 563.862 2723.1 563.862C2704.52 563.862 2688.31 561.009 2674.68 555.3C2660.98 549.657 2650.3 541.353 2642.6 530.455C2634.89 519.557 2630.74 506.259 2630.15 490.625H2672.84C2673.43 498.798 2676.06 505.61 2680.54 511.124C2685.08 516.573 2691.01 520.595 2698.26 523.319C2705.58 525.979 2713.74 527.341 2722.77 527.341C2732.19 527.341 2740.49 525.914 2747.66 523.124C2754.78 520.335 2760.38 516.444 2764.4 511.384C2768.48 506.388 2770.53 500.486 2770.59 493.739C2770.53 487.577 2768.68 482.451 2765.12 478.429C2761.5 474.408 2756.49 471.035 2750.1 468.311C2743.65 465.586 2736.14 463.121 2727.57 460.98L2700.3 454.104C2680.61 449.109 2664.99 441.52 2653.6 431.336C2642.14 421.151 2636.47 407.658 2636.47 390.727C2636.47 376.846 2640.29 364.651 2648 354.206C2655.64 343.763 2666.12 335.654 2679.36 329.88C2692.66 324.042 2707.68 321.188 2724.41 321.188C2741.41 321.188 2756.29 324.042 2769.14 329.88C2781.98 335.654 2792.07 343.698 2799.37 353.946C2806.69 364.196 2810.51 375.937 2810.71 389.235H2768.94Z" fill="black"/>
</g>
<defs>
<clipPath id="clip0_117_215">
<rect width="2814" height="571" fill="white"/>
</clipPath>
</defs>
</svg>
