<svg width="800" height="800" viewBox="0 0 800 800" fill="none" xmlns="http://www.w3.org/2000/svg">
<g clip-path="url(#clip0_117_168)">
<path d="M6.41399 600C10.4956 606.154 16.3265 611.282 23.9067 614.872L377.259 794.359C391.837 802.052 409.912 802.052 423.907 794.359L777.259 614.872C791.837 607.693 800.583 593.847 800.583 578.975V220.513C800.583 205.641 791.837 192.308 777.259 184.616L423.907 5.12861C409.329 -2.5637 391.254 -2.5637 377.259 5.12861L23.3236 185.129C8.74636 192.308 0 206.154 0 221.026V579.488C0 586.667 2.33236 593.847 6.41399 600Z" fill="#009639"/>
<path d="M286.88 536.41C286.88 558.461 266.472 576.41 241.399 576.41C216.326 576.41 195.918 558.461 195.918 536.41V262.051C197.667 238.974 219.825 221.538 246.064 223.077C246.647 223.077 246.647 223.077 247.23 223.077C271.137 222.564 293.294 231.795 309.038 247.179L323.032 261.538L513.119 462.051V263.59C513.119 241.538 533.527 223.59 558.6 223.59C583.673 223.59 604.081 241.538 604.081 263.59V537.949C602.332 561.026 580.175 578.461 553.935 576.923C553.352 576.923 553.352 576.923 552.769 576.923C528.863 577.436 506.705 568.205 490.962 552.82L286.88 337.949V536.41Z" fill="white"/>
</g>
<defs>
<clipPath id="clip0_117_168">
<rect width="800" height="800" fill="white"/>
</clipPath>
</defs>
</svg>
