<svg width="943" height="577" viewBox="0 0 943 577" fill="none" xmlns="http://www.w3.org/2000/svg">
<g clip-path="url(#clip0_114_56)">
<path d="M466.089 577.002C462.977 577.002 459.886 576.187 457.158 574.617L428.727 557.801C424.481 555.428 426.553 554.589 427.953 554.106C433.615 552.125 434.764 551.678 440.807 548.249C441.443 547.887 442.274 548.015 442.924 548.398L464.766 561.347C465.554 561.773 466.673 561.773 467.405 561.347L552.566 512.236C553.354 511.788 553.866 510.873 553.866 509.936V411.756C553.866 410.776 553.354 409.903 552.549 409.413L467.422 360.345C466.633 359.876 465.588 359.876 464.8 360.345L379.69 409.413C378.865 409.882 378.34 410.798 378.34 411.735V509.914C378.34 510.851 378.852 511.746 379.662 512.193L402.983 525.653C415.645 531.978 423.383 524.524 423.383 517.028V420.126C423.383 418.741 424.47 417.677 425.856 417.677H436.642C437.985 417.677 439.094 418.741 439.094 420.126V517.07C439.094 533.937 429.885 543.628 413.876 543.628C408.951 543.628 405.072 543.628 394.243 538.303L371.903 525.44C366.381 522.245 362.971 516.282 362.971 509.914V411.735C362.971 405.346 366.381 399.382 371.903 396.23L457.149 347.098C462.542 344.053 469.705 344.053 475.055 347.098L560.195 396.252C565.695 399.425 569.127 405.367 569.127 411.756V509.936C569.127 516.303 565.695 522.245 560.195 525.44L475.055 574.572C472.327 576.148 469.236 576.958 466.081 576.958" fill="#689F63"/>
<path d="M492.395 509.35C455.133 509.35 447.32 492.261 447.32 477.928C447.32 476.565 448.42 475.479 449.787 475.479H460.786C462.001 475.479 463.025 476.363 463.216 477.562C464.879 488.76 469.825 494.408 492.357 494.408C510.305 494.408 517.937 490.357 517.937 480.848C517.937 475.374 515.763 471.307 487.88 468.581C464.559 466.281 450.149 461.148 450.149 442.513C450.149 425.348 464.645 415.125 488.925 415.125C516.189 415.125 529.704 424.581 531.409 444.898C531.473 445.601 531.217 446.283 530.748 446.794C530.279 447.284 529.619 447.582 528.937 447.582H517.873C516.722 447.582 515.72 446.772 515.486 445.665C512.821 433.888 506.383 430.118 488.882 430.118C469.292 430.118 467.011 436.933 467.011 442.045C467.011 448.242 469.697 450.052 496.13 453.545C522.307 457.016 534.735 461.915 534.735 480.294C534.735 498.823 519.259 509.45 492.271 509.45M596 405.328H598.856C601.201 405.328 601.649 403.688 601.649 402.73C601.649 400.217 599.922 400.217 598.963 400.217H596.021L596 405.328ZM592.525 397.278H598.856C601.03 397.278 605.294 397.278 605.294 402.134C605.294 405.52 603.119 406.223 601.819 406.649C604.356 406.819 604.526 408.48 604.867 410.823C605.038 412.292 605.315 414.827 605.827 415.679H601.926C601.819 414.827 601.222 410.141 601.222 409.886C600.966 408.842 600.604 408.331 599.304 408.331H596.085V415.7H592.525V397.278ZM584.915 406.436C584.915 414.06 591.075 420.236 598.643 420.236C606.274 420.236 612.435 413.932 612.435 406.436C612.435 398.79 606.189 392.72 598.622 392.72C591.161 392.72 584.893 398.705 584.893 406.414M615.078 406.478C615.078 415.508 607.681 422.877 598.664 422.877C589.711 422.877 582.25 415.594 582.25 406.478C582.25 397.193 589.882 390.08 598.664 390.08C607.511 390.08 615.057 397.214 615.057 406.478" fill="#689F63"/>
<path fill-rule="evenodd" clip-rule="evenodd" d="M202.377 192.845C202.377 188.926 200.309 185.327 196.924 183.378L106.634 131.477C105.109 130.583 103.402 130.114 101.671 130.05H100.737C99.0064 130.114 97.2989 130.583 95.7491 131.477L5.46335 183.378C2.09954 185.337 0.00195312 188.937 0.00195312 192.855L0.200201 332.649C0.200201 334.588 1.2021 336.398 2.90745 337.356C4.57017 338.378 6.65924 338.378 8.32196 337.356L61.998 306.646C65.3874 304.631 67.4552 301.07 67.4552 297.19V231.882C67.4552 227.985 69.5229 224.386 72.9016 222.448L95.7534 209.299C97.4502 208.319 99.3133 207.834 101.211 207.834C103.078 207.834 104.984 208.315 106.634 209.297L129.475 222.441C132.856 224.379 134.932 227.979 134.932 231.876V297.179C134.932 301.055 137.027 304.633 140.4 306.635L194.042 337.324C195.726 338.325 197.821 338.325 199.499 337.324C201.153 336.366 202.202 334.556 202.202 332.618L202.377 192.845ZM628.434 265.63C628.434 266.603 627.916 267.504 627.07 267.985L596.058 285.845C595.216 286.328 594.176 286.328 593.336 285.845L562.32 267.985C561.467 267.502 560.955 266.601 560.955 265.63V229.859C560.955 228.884 561.467 227.985 562.298 227.495L593.293 209.606C594.146 209.116 595.19 209.116 596.043 209.606L627.059 227.495C627.912 227.985 628.423 228.884 628.423 229.859L628.434 265.63ZM636.812 0.689565C635.119 -0.251767 633.06 -0.22621 631.389 0.747067C629.726 1.72673 628.698 3.51569 628.698 5.45372V143.885C628.698 145.248 627.974 146.504 626.793 147.186C625.62 147.867 624.16 147.867 622.977 147.186L600.36 134.171C596.992 132.225 592.843 132.225 589.462 134.171L499.142 186.249C495.768 188.187 493.685 191.786 493.685 195.662V299.848C493.685 303.745 495.768 307.323 499.142 309.282L589.462 361.396C592.835 363.334 596.987 363.334 600.37 361.396L690.69 309.261C694.058 307.302 696.147 303.724 696.147 299.826V40.1722C696.147 36.2195 693.994 32.5841 690.541 30.6524L636.812 0.689565ZM937.579 228.918C940.934 226.971 943 223.376 943 219.5V194.25C943 190.366 940.932 186.781 937.57 184.826L847.826 132.776C844.436 130.817 840.28 130.817 836.89 132.776L746.592 184.848C743.202 186.807 741.135 190.385 741.135 194.282V298.425C741.135 302.344 743.245 305.964 746.634 307.902L836.357 358.994C839.661 360.889 843.712 360.911 847.059 359.058L901.331 328.923C903.037 327.964 904.124 326.154 904.124 324.195C904.124 322.235 903.079 320.404 901.374 319.445L810.521 267.353C808.816 266.394 807.771 264.584 807.771 262.646V229.976C807.771 228.025 808.795 226.228 810.5 225.257L838.766 208.964C840.45 207.985 842.518 207.985 844.202 208.964L872.49 225.257C874.174 226.215 875.218 228.025 875.218 229.963V255.648C875.218 257.586 876.263 259.396 877.947 260.376C879.631 261.334 881.72 261.334 883.404 260.354L937.579 228.918Z" fill="#333333"/>
<path fill-rule="evenodd" clip-rule="evenodd" d="M841.035 224.045C841.675 223.668 842.476 223.668 843.124 224.045L860.455 234.034C861.103 234.409 861.5 235.099 861.5 235.844V255.842C861.5 256.587 861.103 257.277 860.455 257.652L843.124 267.641C842.476 268.018 841.675 268.018 841.035 267.641L823.715 257.652C823.054 257.277 822.649 256.587 822.649 255.842V235.844C822.649 235.099 823.033 234.409 823.694 234.034L841.035 224.045Z" fill="#689F63"/>
<mask id="mask0_114_56" style="mask-type:luminance" maskUnits="userSpaceOnUse" x="247" y="131" width="202" height="230">
<path d="M342.615 133.296L252.807 185.084C249.443 187.023 247.38 190.6 247.38 194.468V298.117C247.38 301.986 249.443 305.562 252.807 307.5L342.622 359.329C345.979 361.26 350.119 361.26 353.472 359.329L443.272 307.5C446.619 305.562 448.686 301.984 448.686 298.117V194.468C448.686 190.6 446.619 187.023 443.251 185.084L353.464 133.296C351.78 132.332 349.904 131.848 348.028 131.848C346.152 131.848 344.276 132.332 342.592 133.296" fill="white"/>
</mask>
<g mask="url(#mask0_114_56)">
<path d="M539.441 176.291L286.377 52.3633L156.621 316.818L409.679 440.752L539.441 176.291Z" fill="url(#paint0_linear_114_56)"/>
</g>
<mask id="mask1_114_56" style="mask-type:luminance" maskUnits="userSpaceOnUse" x="249" y="132" width="197" height="229">
<path d="M249.605 304.697C250.465 305.811 251.539 306.776 252.803 307.5L329.842 351.958L342.675 359.327C344.594 360.434 346.781 360.903 348.93 360.743C349.646 360.685 350.362 360.551 351.061 360.353L445.781 187.08C445.056 186.292 444.208 185.632 443.257 185.078L384.452 151.152L353.368 133.284C352.485 132.772 351.528 132.41 350.554 132.155L249.605 304.697Z" fill="white"/>
</mask>
<g mask="url(#mask1_114_56)">
<path d="M140.189 212.945L318.879 454.567L555.198 280.131L376.498 38.5156L140.189 212.945Z" fill="url(#paint1_linear_114_56)"/>
</g>
<mask id="mask2_114_56" style="mask-type:luminance" maskUnits="userSpaceOnUse" x="253" y="131" width="196" height="230">
<path d="M346.956 131.908C345.449 132.057 343.976 132.525 342.618 133.296L253.065 184.935L349.631 360.658C350.974 360.466 352.296 360.019 353.49 359.329L443.298 307.5C446.069 305.894 447.966 303.177 448.542 300.097L350.1 132.084C349.375 131.942 348.651 131.867 347.905 131.867C347.606 131.867 347.308 131.882 347.009 131.91" fill="white"/>
</mask>
<g mask="url(#mask2_114_56)">
<path d="M253.063 131.867V360.662H448.504V131.867H253.063Z" fill="url(#paint2_linear_114_56)"/>
</g>
</g>
<defs>
<linearGradient id="paint0_linear_114_56" x1="412.833" y1="114.132" x2="283.281" y2="378.665" gradientUnits="userSpaceOnUse">
<stop offset="0.3" stop-color="#3E863D"/>
<stop offset="0.5" stop-color="#55934F"/>
<stop offset="0.8" stop-color="#5AAD45"/>
</linearGradient>
<linearGradient id="paint1_linear_114_56" x1="230.605" y1="335.141" x2="466.778" y2="160.474" gradientUnits="userSpaceOnUse">
<stop offset="0.57" stop-color="#3E863D"/>
<stop offset="0.72" stop-color="#619857"/>
<stop offset="1" stop-color="#76AC64"/>
</linearGradient>
<linearGradient id="paint2_linear_114_56" x1="253.129" y1="246.271" x2="448.541" y2="246.271" gradientUnits="userSpaceOnUse">
<stop offset="0.16" stop-color="#6BBF47"/>
<stop offset="0.38" stop-color="#79B461"/>
<stop offset="0.47" stop-color="#75AC64"/>
<stop offset="0.7" stop-color="#659E5A"/>
<stop offset="0.9" stop-color="#3E863D"/>
</linearGradient>
<clipPath id="clip0_114_56">
<rect width="943" height="577" fill="white"/>
</clipPath>
</defs>
</svg>
