<svg width="2108" height="1437" viewBox="0 0 2108 1437" fill="none" xmlns="http://www.w3.org/2000/svg">
<g clip-path="url(#clip0_117_136)">
<path d="M506.623 1308.98H425.312C422.497 1171.15 414.679 1041.47 401.544 920.279H400.919L277.076 1308.98H215.155L91.9378 920.279H91.3123C82.2431 1036.76 76.3011 1166.44 74.112 1308.98H-0.00585938C4.68515 1135.67 16.8818 973.027 35.9585 821.062H136.659L253.934 1179.63H254.559L372.46 821.062H468.782C490.361 999.088 502.87 1161.73 506.623 1308.98Z" fill="#00758F"/>
<path d="M859.386 949.165C826.237 1129.7 782.454 1260.63 728.351 1342.27C686.132 1405.38 639.847 1436.77 589.497 1436.77C576.049 1436.77 559.475 1432.69 539.772 1424.53V1381.2C549.467 1382.46 560.726 1383.4 573.548 1383.4C597.003 1383.4 616.079 1376.8 630.465 1363.93C647.666 1347.92 656.422 1330.33 656.422 1310.55C656.422 1297.05 649.542 1269.42 636.407 1227.35L547.278 949.165H627.025L691.135 1157.33C705.521 1204.43 711.463 1237.71 709.274 1256.24C744.3 1162.36 768.694 1060 782.767 949.165H859.386Z" fill="#00758F"/>
<path d="M1215.59 1173.97C1215.59 1215.42 1200.58 1249.33 1170.24 1276.02C1139.91 1302.39 1099.57 1315.58 1048.59 1315.58C1001.06 1315.58 955.083 1300.19 910.362 1270.05L931.316 1228.29C969.782 1247.44 1004.5 1257.18 1035.77 1257.18C1065.17 1257.18 1087.99 1250.58 1104.57 1237.71C1121.14 1224.84 1131.15 1206.63 1131.15 1183.39C1131.15 1154.51 1111.14 1129.7 1074.23 1108.98C1040.15 1090.14 971.971 1050.89 971.971 1050.89C935.068 1023.89 916.617 995.005 916.617 946.966C916.617 907.405 930.377 875.379 957.898 851.203C985.418 826.713 1021.07 814.782 1064.85 814.782C1109.89 814.782 1150.85 826.713 1187.76 850.889L1168.99 892.648C1137.41 879.147 1106.13 872.554 1075.49 872.554C1050.47 872.554 1031.39 878.519 1017.94 890.765C1004.5 902.696 996.051 918.081 996.051 936.919C996.051 965.805 1016.69 990.924 1054.53 1011.96C1088.93 1030.8 1158.67 1070.67 1158.67 1070.67C1196.83 1097.68 1215.59 1126.56 1215.59 1173.97Z" fill="#F29111"/>
<path fill-rule="evenodd" clip-rule="evenodd" d="M1361.01 1211.65C1341.31 1179.94 1331.61 1128.76 1331.61 1058.43C1331.61 935.664 1368.83 874.124 1443.26 874.124C1482.04 874.124 1510.81 888.881 1528.95 918.081C1548.65 949.793 1558.35 1000.34 1558.35 1069.73C1558.35 1193.44 1521.13 1255.61 1446.7 1255.61C1407.92 1255.61 1379.15 1240.85 1361.01 1211.65ZM1650.29 1320.92L1560.85 1276.64C1568.67 1270.05 1576.48 1263.14 1583.05 1254.98C1620.89 1210.08 1639.97 1143.83 1639.97 1056.23C1639.97 894.847 1576.8 814.154 1450.77 814.154C1388.84 814.154 1340.68 834.563 1305.97 875.694C1268.13 920.593 1249.05 986.528 1249.05 1073.81C1249.05 1159.53 1265.94 1222.33 1299.4 1262.52C1330.05 1298.62 1376.34 1316.83 1438.26 1316.83C1461.4 1316.83 1482.66 1314.01 1501.74 1308.36L1618.08 1376.18L1650.29 1320.92Z" fill="#F29111"/>
<path d="M1941.76 1308.98H1710.65V821.062H1788.52V1249.01H1941.76V1308.98Z" fill="#F29111"/>
<path d="M1997.42 1308.98H2010.25V1259.38H2027.13V1249.33H1979.91V1259.38H1997.42V1308.98ZM2095.31 1308.98H2107.51V1249.33H2089.37L2074.36 1290.15L2058.09 1249.33H2040.58V1308.98H2052.15V1263.46H2052.78L2069.67 1308.98H2078.42L2095.31 1263.46V1308.98Z" fill="#F29111"/>
<path fill-rule="evenodd" clip-rule="evenodd" d="M2039.33 657.793C1992.42 656.537 1955.83 661.247 1925.5 674.434C1916.74 677.888 1902.67 677.887 1901.41 689.191C1906.11 693.9 1906.73 701.436 1910.8 708.029C1917.68 719.961 1930.19 735.66 1941.44 743.823C1953.64 753.242 1966.15 762.662 1978.97 770.825C2001.8 784.954 2027.76 793.117 2049.96 807.246C2062.79 815.41 2075.92 826.085 2088.74 834.877C2095.31 839.586 2099.38 847.122 2107.51 850.262V848.378C2103.44 843.04 2102.19 835.505 2098.12 829.539C2092.18 823.574 2086.24 818.236 2080.61 812.584C2063.72 789.664 2042.46 769.569 2019.63 752.928C2000.86 740.055 1959.58 722.158 1952.08 700.494C1952.08 700.494 1951.45 699.866 1950.83 699.238C1963.65 697.982 1978.97 693.273 1991.48 689.819C2011.5 684.481 2029.64 685.737 2050.28 680.399C2059.66 677.888 2069.04 675.062 2078.42 672.236V666.898C2067.79 656.223 2060.28 642.094 2049.03 632.047C2019 605.986 1986.17 580.868 1952.08 559.518C1933.94 547.587 1910.48 540.051 1891.09 530.004C1884.21 526.55 1872.33 524.666 1868.27 518.701C1857.63 505.827 1851.69 488.559 1844.18 473.174C1827.3 440.834 1810.72 404.726 1796.02 370.502C1785.39 347.582 1779.14 324.662 1766 303.311C1705.64 203.152 1639.66 142.554 1538.96 82.8983C1517.38 70.6531 1491.42 65.3157 1463.9 58.7221C1449.2 58.0941 1434.5 56.838 1419.8 56.524C1410.42 52.4423 1401.04 41.1392 1392.91 35.8015C1359.45 14.451 1273.13 -31.3898 1248.43 29.2081C1232.48 67.5134 1271.88 105.191 1285.33 124.658C1295.34 138.159 1308.16 153.544 1315.35 168.928C1319.42 178.976 1320.67 189.651 1324.73 200.326C1334.12 226.387 1342.87 255.272 1355.38 279.449C1361.95 291.694 1368.83 304.881 1376.96 315.87C1381.65 322.464 1389.78 325.29 1391.66 335.965C1383.53 347.896 1382.9 365.479 1378.21 380.236C1356.95 446.799 1365.39 529.376 1395.1 578.356C1404.48 593.113 1426.69 625.453 1456.71 613.208C1482.98 602.533 1477.35 568.937 1484.85 539.423C1486.73 532.202 1485.48 527.492 1488.92 522.782V524.038C1497.05 540.365 1505.49 556.378 1513 573.019C1531.14 601.905 1563.04 632.046 1589.31 651.827C1603.38 662.502 1614.64 680.713 1632.15 687.307V685.423H1630.9C1627.46 680.085 1622.14 677.887 1617.45 673.806C1606.82 663.13 1595.25 650.257 1586.8 638.326C1562.1 605.359 1540.52 568.623 1521.13 530.945C1511.75 512.735 1503.62 492.64 1495.8 474.429C1492.36 467.522 1492.36 456.847 1486.42 453.079C1477.66 465.952 1464.84 477.255 1458.27 492.954C1447.01 518.386 1446.07 549.47 1441.7 582.124C1439.51 582.752 1440.45 582.124 1439.51 583.38C1420.74 578.67 1414.18 559.204 1407.3 542.877C1389.78 501.118 1386.66 433.926 1401.98 385.574C1406.04 373.328 1423.87 334.395 1416.68 322.464C1413.24 311.161 1401.35 304.881 1395.1 295.776C1387.59 284.473 1379.15 270.344 1374.15 258.098C1360.07 225.131 1352.88 188.395 1337.87 155.427C1330.68 140.042 1318.48 124.029 1308.47 109.9C1297.21 93.8875 1285.02 82.8983 1276.26 64.0596C1273.45 57.466 1269.38 46.7909 1273.76 39.8834C1275.01 35.1737 1277.2 33.2898 1281.89 32.3478C1289.4 25.7543 1311.29 34.2316 1318.79 37.6853C1340.68 46.4767 1358.82 54.9542 1376.96 67.1994C1385.09 73.165 1393.85 84.1543 1404.48 87.2941H1416.99C1435.75 91.3758 1457.02 88.5499 1474.53 93.8875C1505.49 103.935 1533.95 118.692 1558.97 134.705C1635.9 183.685 1699.39 253.074 1742.23 336.279C1749.43 349.78 1752.24 362.339 1758.81 376.468C1771 405.354 1786.33 434.868 1798.84 463.126C1811.03 490.756 1822.92 519.015 1840.43 542.249C1849.19 554.494 1884.53 561.088 1900.16 567.681C1911.74 573.019 1930.19 577.728 1940.82 584.008C1960.83 596.253 1980.85 610.382 1999.61 624.197C2008.37 631.419 2037.77 646.176 2039.33 657.793Z" fill="#00758F"/>
<path fill-rule="evenodd" clip-rule="evenodd" d="M1440.76 145.694C1430.75 145.694 1423.87 146.95 1416.68 148.52V149.776H1417.93C1422.62 159.195 1430.75 165.788 1436.69 173.952C1441.38 183.371 1445.45 192.791 1450.14 202.21C1450.77 201.582 1451.39 200.954 1451.39 200.954C1459.52 194.988 1463.9 185.569 1463.9 171.44C1460.46 167.358 1459.84 163.277 1456.71 159.195C1452.95 153.229 1445.45 150.404 1440.76 145.694Z" fill="#00758F"/>
</g>
<defs>
<clipPath id="clip0_117_136">
<rect width="2108" height="1437" fill="white"/>
</clipPath>
</defs>
</svg>
