<svg width="970" height="486" viewBox="0 0 970 486" fill="none" xmlns="http://www.w3.org/2000/svg">
<g clip-path="url(#clip0_114_51)">
<path d="M76.952 102.05H220.731C263.257 102.05 293.633 114.175 312.871 138.424C332.109 162.674 338.184 195.006 332.109 236.432C330.084 255.63 324.008 273.817 315.908 292.004C307.808 310.191 296.67 326.357 281.482 341.513C263.257 359.701 244.019 371.825 223.768 376.877C203.518 381.929 182.255 383.95 159.979 383.95H95.1775L74.9269 486H0L76.952 102.05ZM139.729 163.684L107.328 324.337C109.353 324.337 111.378 325.347 113.403 325.347C115.428 325.347 118.466 325.347 120.491 325.347C154.916 325.347 183.267 322.316 206.555 315.243C229.843 308.17 245.031 281.9 253.132 237.443C259.207 200.058 253.132 178.84 233.894 172.777C214.656 166.715 191.367 164.694 163.017 164.694C158.967 164.694 154.916 165.705 150.866 165.705C146.816 163.684 142.766 163.684 139.729 163.684Z" fill="white"/>
<path d="M416.147 0H490.062L468.799 102.05H535.625C572.076 103.06 599.415 110.133 617.64 124.279C635.865 138.424 640.928 165.705 633.84 206.121L597.389 384.961H522.463L556.888 214.204C560.939 196.017 558.913 183.892 553.851 175.809C547.776 168.736 535.625 164.694 516.387 164.694L456.648 163.684L413.11 383.95H339.195L416.147 0Z" fill="white"/>
<path d="M712.819 102.05H856.598C899.124 102.05 929.5 114.175 948.738 138.424C967.976 162.674 974.051 195.006 967.976 236.432C965.951 255.63 959.876 273.817 951.775 292.004C943.675 310.191 932.537 326.357 917.349 341.513C899.124 359.701 879.886 371.825 859.635 376.877C839.385 381.929 818.122 383.95 795.846 383.95H731.045L710.794 486H635.867L712.819 102.05ZM775.596 163.684L743.195 324.337C745.22 324.337 747.245 325.347 749.27 325.347C751.295 325.347 754.333 325.347 756.358 325.347C790.784 325.347 819.134 322.316 842.422 315.243C865.711 308.17 880.899 281.9 888.999 237.443C895.074 200.058 888.999 178.84 869.761 172.777C850.523 166.715 827.235 164.694 798.884 164.694C794.834 164.694 790.784 165.705 786.734 165.705C782.683 163.684 778.633 163.684 775.596 163.684Z" fill="white"/>
</g>
<defs>
<clipPath id="clip0_114_51">
<rect width="970" height="486" fill="white"/>
</clipPath>
</defs>
</svg>
