<svg width="1111" height="1111" viewBox="0 0 1111 1111" fill="none" xmlns="http://www.w3.org/2000/svg">
<g clip-path="url(#clip0_114_41)">
<path d="M557.453 436.154C498.682 436.154 451.039 489.101 451.039 554.415C451.039 619.729 498.682 672.676 557.453 672.676C616.224 672.676 663.867 619.729 663.867 554.415C663.867 489.101 616.224 436.154 557.453 436.154Z" fill="#58C4DC"/>
<path d="M1110.92 555.488C1110.92 462.644 1033.56 381.215 910.379 327.626C912.025 315.558 913.514 303.62 914.572 291.9C926.722 158.494 897.798 62.2087 833.172 20.7317C760.863 -25.6684 658.73 8.00983 555.461 99.8516C452.191 8.00983 350.058 -25.6684 277.75 20.7317C213.123 62.2087 184.2 158.494 196.349 291.9C197.407 303.62 198.858 315.601 200.543 327.713C190.275 332.07 180.202 336.688 170.522 341.524C60.5508 396.464 0 472.534 0 555.488C0 648.332 77.364 729.761 200.543 783.349C198.858 795.418 197.407 807.356 196.349 819.075C184.2 952.481 213.123 1048.77 277.75 1090.24C299.969 1104.25 325.147 1111.41 350.685 1110.98C411.902 1110.98 483.388 1075.17 555.461 1011.12C627.495 1075.17 699.019 1110.98 760.315 1110.98C785.852 1111.4 811.028 1104.24 833.25 1090.24C897.877 1048.77 926.8 952.481 914.651 819.075C913.593 807.356 912.103 795.418 910.457 783.349C1033.64 729.848 1111 648.288 1111 555.488M759.844 58.8103C776.265 58.37 792.496 62.7907 806.874 71.6194C851.748 100.418 871.893 178.536 862.095 285.931C861.429 293.251 860.645 300.657 859.704 308.108C808.486 290.961 756.038 278.731 702.938 271.554C670.749 223.988 634.954 179.575 595.946 138.802C657.202 86.1712 714.696 58.8103 759.805 58.8103M738.759 673.122C718.938 711.367 697.354 748.449 674.093 784.221C634.666 788.723 595.056 790.963 555.422 790.931C515.8 790.961 476.203 788.722 436.789 784.221C413.591 748.448 392.072 711.366 372.319 673.122C352.499 634.983 334.485 595.718 318.352 555.488C334.485 515.258 352.499 475.993 372.319 437.854C392.041 399.763 413.493 362.813 436.593 327.147C476.079 322.533 515.757 320.235 555.461 320.263C595.082 320.236 634.679 322.476 674.093 326.973C697.273 362.694 718.804 399.702 738.603 437.854C758.408 476.002 776.421 515.266 792.569 555.488C776.421 595.709 758.408 634.973 738.603 673.122M819.533 629.554C831.971 667.259 842.183 705.826 850.102 745.009C815.735 756.92 780.701 766.307 745.226 773.111C758.708 750.514 771.772 727.001 784.417 702.574C796.92 678.437 808.638 654.083 819.69 629.728M481.036 847.09C505.413 848.745 530.3 849.704 555.5 849.704C580.7 849.704 605.743 848.745 630.16 847.09C607.01 877.914 582.07 907.022 555.5 934.226C528.988 907.026 504.113 877.918 481.036 847.09ZM365.735 773.024C330.249 766.251 295.201 756.892 260.819 745.009C268.707 705.888 278.879 667.379 291.271 629.728C302.166 654.083 313.845 678.437 326.543 702.574C339.241 726.711 352.371 750.499 365.735 773.111M291.271 481.204C278.923 443.692 268.778 405.33 260.898 366.358C295.194 354.462 330.148 345.046 365.539 338.17C352.135 360.694 339.006 384.047 326.347 408.402C313.689 432.756 302.127 456.806 291.075 481.204M629.925 263.842C605.548 262.187 580.661 261.228 555.265 261.228C530.078 261.228 505.257 262.1 480.801 263.842C503.878 233.014 528.752 203.906 555.265 176.706C581.845 203.899 606.785 233.007 629.925 263.842ZM784.339 408.402C771.641 383.945 758.512 360.418 744.952 337.821C780.52 344.625 815.646 354.027 850.102 365.966C842.197 405.082 832.025 443.59 819.651 481.248C808.755 456.893 797.037 432.538 784.378 408.445M248.983 285.975C239.068 178.623 259.33 100.462 304.165 71.663C318.548 62.848 334.775 58.4282 351.195 58.8539C396.304 58.8539 453.798 86.2147 515.054 138.845C476.02 179.648 440.199 224.09 407.983 271.685C354.898 278.896 302.457 291.08 251.217 308.108C250.316 300.657 249.493 293.294 248.866 285.975M192.234 395.157C198.27 392.252 204.423 389.348 210.693 386.443C223.021 444.26 239.737 500.811 260.663 555.488C239.698 610.272 222.968 666.941 210.654 724.881C110.794 679.352 52.9085 616.265 52.9085 555.488C52.9085 497.891 103.857 439.466 192.234 395.157ZM304.165 1039.31C259.33 1010.51 239.068 932.353 248.983 825.001C249.611 817.681 250.434 810.318 251.335 802.824C302.555 819.967 355.002 832.196 408.101 839.378C440.3 886.961 476.094 931.403 515.094 972.218C429.695 1045.54 351.665 1069.72 304.283 1039.31M862.056 825.001C871.854 932.396 851.709 1010.51 806.835 1039.31C759.492 1069.81 681.422 1045.54 596.063 972.218C635.049 931.402 670.831 886.96 703.017 839.378C756.116 832.201 808.564 819.971 859.783 802.824C860.723 810.318 861.507 817.681 862.173 825.001M900.503 724.794C888.154 666.888 871.412 610.249 850.455 555.488C871.402 500.697 888.132 444.029 900.463 386.095C1000.13 431.623 1058.17 494.71 1058.17 555.488C1058.17 616.265 1000.28 679.352 900.424 724.881" fill="#58C4DC"/>
</g>
<defs>
<clipPath id="clip0_114_41">
<rect width="1111" height="1111" fill="white"/>
</clipPath>
</defs>
</svg>
