<svg width="298" height="447" viewBox="0 0 298 447" fill="none" xmlns="http://www.w3.org/2000/svg">
<path d="M149 223.5C149 182.775 182.015 149.759 222.742 149.759C263.467 149.759 296.483 182.775 296.483 223.5C296.483 264.227 263.467 297.242 222.742 297.242C182.015 297.242 149 264.227 149 223.5Z" fill="#1ABCFE"/>
<path d="M1.5166 370.983C1.5166 330.257 34.5318 297.241 75.2581 297.241H149V370.983C149 411.709 115.985 444.724 75.2581 444.724C34.5318 444.724 1.5166 411.709 1.5166 370.983Z" fill="#0ACF83"/>
<path d="M149 2.27539V149.758H222.742C263.468 149.758 296.483 116.743 296.483 76.0169C296.483 35.2906 263.468 2.27539 222.742 2.27539H149Z" fill="#FF7262"/>
<path d="M1.5166 76.0169C1.5166 116.743 34.5318 149.758 75.2581 149.758H149V2.27539H75.2581C34.5318 2.27539 1.5166 35.2906 1.5166 76.0169Z" fill="#F24E1E"/>
<path d="M1.5166 223.5C1.5166 264.227 34.5318 297.242 75.2581 297.242H149V149.759H75.2581C34.5318 149.759 1.5166 182.775 1.5166 223.5Z" fill="#A259FF"/>
</svg>
